 http://www.imdb.com/title/tt1325004/

Format : AVI
Format/Info : Audio Video Interleave
File size : 1.37 GiB
Duration : 1h 53mn
Overall bit rate : 1 728 Kbps
Movie name : The Twilight Saga: Eclipse (2010)
Director : ELEKTRI4KA
Writing application : VirtualDubMod 1.5.10.2 (build 2540/release)
Copyright : http://uniongang.tv/

Video
ID : 0
Format : MPEG-4 Visual
Format profile : AdvancedSimple@L5
Format settings, BVOP : Yes
Format settings, QPel : Yes
Format settings, GMC : No warppoints
Format settings, Matrix : Default (H.263)
Codec ID : XVID
Codec ID/Hint : XviD
Duration : 1h 53mn
Bit rate : 1 590 Kbps
Width : 720 pixels
Height : 304 pixels
Display aspect ratio : 2.35:1
Frame rate : 25.000 fps
Resolution : 24 bits
Colorimetry : 4:2:0
Scan type : Progressive
Bits/(Pixel*Frame) : 0.291
Stream size : 1.26 GiB (92%)
Writing library : XviD 1.2.1 (UTC 2008-12-04)

Audio
ID : 1
Format : MPEG Audio
Format version : Version 1
Format profile : Layer 3
Codec ID : 55
Codec ID/Hint : MP3
Duration : 1h 53mn
Bit rate mode : Constant
Bit rate : 128 Kbps
Channel(s) : 2 channels
Sampling rate : 48.0 KHz
Resolution : 16 bits
Stream size : 104 MiB (7%)
Alignment : Aligned on interleaves
Interleave, duration : 40 ms (1.00 video frame)
Interleave, preload duration : 504 ms
Writing library : LAME3.98r
Encoding settings : -m s -V 4 -q 2 -lowpass 17 -b 128

Screenshots
 
http://postimg.com/image/18000/17231.jpg 
http://postimg.com/image/18000/17234.jpg